<svg width="18" height="11" viewBox="0 0 18 11" fill="none" xmlns="http://www.w3.org/2000/svg">
<path id="Union" fill-rule="evenodd" clip-rule="evenodd" d="M17.3634 5.50709C17.3735 5.13187 17.2353 4.75343 16.9489 4.46706L12.9413 0.459437C12.388 -0.0939008 11.4908 -0.093901 10.9375 0.459437C10.3842 1.01278 10.3842 1.90991 10.9375 2.46325L12.5265 4.05224L1.434 4.05224C0.651462 4.05224 0.0170898 4.68661 0.0170898 5.46915C0.0170898 6.25169 0.651463 6.88606 1.434 6.88606L12.6077 6.88606L10.9377 8.55613C10.3843 9.10947 10.3843 10.0066 10.9376 10.5599C11.491 11.1133 12.3881 11.1133 12.9415 10.5599L16.9491 6.55232C17.2368 6.26463 17.3749 5.88401 17.3634 5.50709Z" fill="white"/>
</svg>
